{
  "accessors": [
    {
      "bufferView": 2,
      "componentType": 5126,
      "count": 3667,
      "max": [
        115.99047088623047,
        156.54150390625,
        99.596000671386719
      ],
      "min": [
        -17.968254089355469,
        -11.515204429626465,
        -0.27740669250488281
      ],
      "type": "VEC3"
    },
    {
      "bufferView": 2,
      "byteOffset": 44004,
      "componentType": 5126,
      "count": 3667,
      "max": [
        1,
        1,
        1
      ],
      "min": [
        -1,
        -1,
        -1
      ],
      "type": "VEC3"
    },
    {
      "bufferView": 1,
      "componentType": 5126,
      "count": 3667,
      "max": [
        0.98796629905700684,
        0.98917698860168457
      ],
      "min": [
        0.00050000002374872565,
        0.00050000002374872565
      ],
      "type": "VEC2"
    },
    {
      "bufferView": 0,
      "componentType": 5125,
      "count": 6609,
      "max": [
        3666
      ],
      "min": [
        0
      ],
      "type": "SCALAR"
    },
    {
      "bufferView": 2,
      "byteOffset": 88008,
      "componentType": 5126,
      "count": 3834,
      "max": [
        114.47560882568359,
        156.54150390625,
        89.680503845214844
      ],
      "min": [
        -15.267486572265625,
        -11.187954902648926,
        -0.1194915771484375
      ],
      "type": "VEC3"
    },
    {
      "bufferView": 2,
      "byteOffset": 134016,
      "componentType": 5126,
      "count": 3834,
      "max": [
        1,
        1,
        1
      ],
      "min": [
        -0.99999523162841797,
        -1,
        -1
      ],
      "type": "VEC3"
    },
    {
      "bufferView": 1,
      "byteOffset": 29336,
      "componentType": 5126,
      "count": 3834,
      "max": [
        0.99949997663497925,
        0.98873955011367798
      ],
      "min": [
        0.0051040621474385262,
        0.00050000002374872565
      ],
      "type": "VEC2"
    },
    {
      "bufferView": 0,
      "byteOffset": 26436,
      "componentType": 5125,
      "count": 4533,
      "max": [
        3833
      ],
      "min": [
        0
      ],
      "type": "SCALAR"
    },
    {
      "bufferView": 2,
      "byteOffset": 180024,
      "componentType": 5126,
      "count": 94,
      "max": [
        111.63426208496094,
        154.89971923828125,
        90.2547607421875
      ],
      "min": [
        -17.968254089355469,
        15.904205322265625,
        1.9073486328125e-06
      ],
      "type": "VEC3"
    },
    {
      "bufferView": 2,
      "byteOffset": 181152,
      "componentType": 5126,
      "count": 94,
      "max": [
        0.97747927904129028,
        1,
        1
      ],
      "min": [
        -1,
        -1,
        -1
      ],
      "type": "VEC3"
    },
    {
      "bufferView": 1,
      "byteOffset": 60008,
      "componentType": 5126,
      "count": 94,
      "max": [
        0.99834132194519043,
        0.99005943536758423
      ],
      "min": [
        0.014312202110886574,
        0.021283067762851715
      ],
      "type": "VEC2"
    },
    {
      "bufferView": 0,
      "byteOffset": 44568,
      "componentType": 5125,
      "count": 135,
      "max": [
        93
      ],
      "min": [
        0
      ],
      "type": "SCALAR"
    },
    {
      "bufferView": 2,
      "byteOffset": 182280,
      "componentType": 5126,
      "count": 8,
      "max": [
        18.452930450439453,
        106.75412750244141,
        5.0000019073486328
      ],
      "min": [
        -17.968254089355469,
        15.904205322265625,
        1.9073486328125e-06
      ],
      "type": "VEC3"
    },
    {
      "bufferView": 2,
      "byteOffset": 182376,
      "componentType": 5126,
      "count": 8,
      "max": [
        0,
        1,
        0
      ],
      "min": [
        -1,
        0,
        0
      ],
      "type": "VEC3"
    },
    {
      "bufferView": 1,
      "byteOffset": 60760,
      "componentType": 5126,
      "count": 8,
      "max": [
        0.984405517578125,
        0.98896414041519165
      ],
      "min": [
        0.28134807944297791,
        0.25832775235176086
      ],
      "type": "VEC2"
    },
    {
      "bufferView": 0,
      "byteOffset": 45108,
      "componentType": 5125,
      "count": 12,
      "max": [
        7
      ],
      "min": [
        0
      ],
      "type": "SCALAR"
    }
  ],
  "asset": {
    "extras": {
      "author": "Samantha Michelson (https://sketchfab.com/SMich017)",
      "license": "CC-BY-4.0 (http://creativecommons.org/licenses/by/4.0/)",
      "source": "https://sketchfab.com/3d-models/old-computer-ea115b4e4d2f49f98b5d21d666236d88",
      "title": "Old Computer"
    },
    "generator": "Sketchfab-9.0.0",
    "version": "2.0"
  },
  "bufferViews": [
    {
      "buffer": 0,
      "byteLength": 45156,
      "byteOffset": 0,
      "name": "floatBufferViews",
      "target": 34963
    },
    {
      "buffer": 0,
      "byteLength": 60824,
      "byteOffset": 45156,
      "byteStride": 8,
      "name": "floatBufferViews",
      "target": 34962
    },
    {
      "buffer": 0,
      "byteLength": 182472,
      "byteOffset": 105980,
      "byteStride": 12,
      "name": "floatBufferViews",
      "target": 34962
    }
  ],
  "buffers": [
    {
      "byteLength": 288452,
      "uri": "scene.bin"
    }
  ],
  "materials": [
    {
      "doubleSided": true,
      "emissiveFactor": [
        0,
        0,
        0
      ],
      "name": "Material_2",
      "pbrMetallicRoughness": {
        "baseColorFactor": [
          0.58823499999999995,
          0.58823499999999995,
          0.58823499999999995,
          1
        ],
        "metallicFactor": 0,
        "roughnessFactor": 0.89297135964975516
      }
    },
    {
      "doubleSided": true,
      "emissiveFactor": [
        0,
        0,
        0
      ],
      "name": "Material_37",
      "pbrMetallicRoughness": {
        "baseColorFactor": [
          0.21176500000000001,
          0.21176500000000001,
          0.21176500000000001,
          1
        ],
        "metallicFactor": 0,
        "roughnessFactor": 0.89297135964975516
      }
    },
    {
      "doubleSided": true,
      "emissiveFactor": [
        0,
        0,
        0
      ],
      "name": "Material_3",
      "pbrMetallicRoughness": {
        "baseColorFactor": [
          0.231373,
          0.231373,
          0.231373,
          1
        ],
        "metallicFactor": 0,
        "roughnessFactor": 0.89297135964975516
      }
    },
    {
      "doubleSided": true,
      "emissiveFactor": [
        0,
        0,
        0
      ],
      "name": "Material_48",
      "pbrMetallicRoughness": {
        "baseColorFactor": [
          0.58799999999999997,
          0.58799999999999997,
          0.58799999999999997,
          1
        ],
        "metallicFactor": 0,
        "roughnessFactor": 0.89297135964975516
      }
    }
  ],
  "meshes": [
    {
      "name": "Box003_Material #2_0",
      "primitives": [
        {
          "attributes": {
            "NORMAL": 1,
            "POSITION": 0,
            "TEXCOORD_0": 2
          },
          "indices": 3,
          "material": 0,
          "mode": 4
        }
      ]
    },
    {
      "name": "Box003_Material #37_0",
      "primitives": [
        {
          "attributes": {
            "NORMAL": 5,
            "POSITION": 4,
            "TEXCOORD_0": 6
          },
          "indices": 7,
          "material": 1,
          "mode": 4
        }
      ]
    },
    {
      "name": "Box003_Material #3_0",
      "primitives": [
        {
          "attributes": {
            "NORMAL": 9,
            "POSITION": 8,
            "TEXCOORD_0": 10
          },
          "indices": 11,
          "material": 2,
          "mode": 4
        }
      ]
    },
    {
      "name": "Box003_Material #48_0",
      "primitives": [
        {
          "attributes": {
            "NORMAL": 13,
            "POSITION": 12,
            "TEXCOORD_0": 14
          },
          "indices": 15,
          "material": 3,
          "mode": 4
        }
      ]
    }
  ],
  "nodes": [
    {
      "children": [
        1
      ],
      "name": "RootNode (gltf orientation matrix)",
      "rotation": [
        -0.70710678118654746,
        -0,
        -0,
        0.70710678118654757
      ]
    },
    {
      "children": [
        2
      ],
      "name": "RootNode (model correction matrix)"
    },
    {
      "children": [
        3
      ],
      "matrix": [
        1,
        0,
        0,
        0,
        0,
        0,
        1,
        0,
        0,
        -1,
        0,
        0,
        0,
        0,
        0,
        1
      ],
      "name": "bdab4efbf74549749c0f2b891f38c713.fbx"
    },
    {
      "children": [
        4
      ],
      "name": "RootNode"
    },
    {
      "children": [
        5,
        6,
        7,
        8
      ],
      "matrix": [
        0.82369697093963623,
        0,
        0,
        0,
        0,
        1.9552647827089192e-16,
        -0.88057297468185425,
        0,
        0,
        1,
        2.2204460492503131e-16,
        0,
        -41.136825561523438,
        -1.9073486328125e-06,
        46.106914520263672,
        1
      ],
      "name": "Box003"
    },
    {
      "mesh": 0,
      "name": "Box003_Material #2_0"
    },
    {
      "mesh": 1,
      "name": "Box003_Material #37_0"
    },
    {
      "mesh": 2,
      "name": "Box003_Material #3_0"
    },
    {
      "mesh": 3,
      "name": "Box003_Material #48_0"
    }
  ],
  "scene": 0,
  "scenes": [
    {
      "name": "OSG_Scene",
      "nodes": [
        0
      ]
    }
  ]
}

